<svg width="65" height="48" viewBox="0 0 65 48" fill="none" xmlns="http://www.w3.org/2000/svg">
<g clip-path="url(#clip0_2_5)">
<path d="M49.4101 32.2595C49.3624 32.4908 49.31 32.7509 49.2527 33.04C49.2718 33.0303 49.2909 33.0159 49.3147 33.0062C49.5246 32.1054 49.7726 31.2141 50.0636 30.3325C50.0636 30.3181 50.0731 30.3085 50.0779 30.294C50.0969 30.0194 50.116 29.7448 50.1208 29.4654C50.1256 29.2293 50.2162 29.0463 50.3497 28.9162C50.2639 28.7861 50.1828 28.6561 50.1113 28.5163C50.0206 28.5453 49.9491 28.5886 49.8919 28.6464C47.7551 30.7131 45.4848 31.7441 43.081 31.7441C41.3353 31.7441 40.2526 31.0889 39.8329 29.7833C42.5706 29.2052 44.612 28.4007 45.9665 27.3698C47.3211 26.3389 47.9984 24.9851 47.9984 23.3135C47.9984 22.1284 47.5929 21.189 46.7821 20.4904C45.9713 19.7919 44.9459 19.4402 43.7153 19.4402C41.6406 19.4402 39.8758 20.4037 38.4164 22.3355C36.9569 24.2625 36.2272 26.3533 36.2272 28.5982C36.2272 28.815 36.2367 29.027 36.251 29.2342C34.305 30.9058 32.2541 31.7392 30.0935 31.7392C28.3479 31.7392 27.2652 31.0841 26.8455 29.7785C29.5832 29.2004 31.6246 28.3959 32.9791 27.365C34.3337 26.334 35.0109 24.9803 35.0109 23.3087C35.0109 22.1236 34.6055 21.1842 33.7947 20.4856C32.9839 19.7871 31.9584 19.4354 30.7279 19.4354C28.6531 19.4354 26.8884 20.3989 25.4289 22.3307C23.9695 24.2577 23.2397 26.3485 23.2397 28.5934C23.2397 28.8102 23.2493 29.0222 23.2636 29.2293C21.3176 30.901 19.2667 31.7344 17.1061 31.7344C15.3605 31.7344 14.2778 31.0792 13.8581 29.7737C16.5958 29.1956 18.6371 28.3911 19.9917 27.3602C21.3462 26.3292 22.0235 24.9755 22.0235 23.3038C22.0235 22.1187 21.6181 21.1793 20.8073 20.4808C19.9965 19.7823 18.971 19.4306 17.7405 19.4306C15.6657 19.4306 13.901 20.3941 12.4415 22.3259C10.982 24.2529 10.2523 26.3437 10.2523 28.5886C10.2523 28.738 10.2618 28.8825 10.2714 29.0318C8.62589 30.7998 7.11395 31.6863 5.7451 31.6863C4.29993 31.6863 3.57973 30.4578 3.57973 27.9961C3.57973 27.4806 3.64174 26.7339 3.76097 25.7656C6.37945 23.6989 8.76898 20.9963 10.9343 17.6578C13.0997 14.3192 14.3302 11.1108 14.6307 8.0469V7.68077C14.6307 6.79917 14.3589 6.0621 13.8199 5.46955C13.281 4.877 12.556 4.58313 11.6545 4.58313C10.1188 4.58313 8.66405 5.33466 7.28089 6.83771C5.89772 8.34076 4.73873 10.2292 3.80867 12.5079C1.90086 17.2868 0.756171 21.8731 0.365069 26.2762C0.336452 26.6086 0.322144 27.0952 0.322144 27.7359C0.322144 29.8604 0.727553 31.5417 1.53837 32.7702C2.34919 33.9986 3.50819 34.6153 5.01059 34.6153C7.13303 34.6153 9.15531 33.7337 11.0727 31.9753C11.3445 32.4281 11.6832 32.8328 12.0886 33.1797C13.3191 34.2299 14.8167 34.7502 16.5767 34.7502C18.3367 34.7502 20.0251 34.3021 21.6515 33.4061C22.5625 32.9051 23.3304 32.3751 23.9647 31.8211C24.2509 32.3366 24.6229 32.7943 25.076 33.1797C26.3065 34.2299 27.8042 34.7502 29.5641 34.7502C31.3241 34.7502 33.0125 34.3021 34.6389 33.4061C35.5499 32.9051 36.3178 32.3751 36.9521 31.8211C37.2383 32.3414 37.6103 32.7943 38.0634 33.1797C39.294 34.2299 40.7916 34.7502 42.5516 34.7502C44.3115 34.7502 45.9999 34.3021 47.6263 33.4061C48.2941 33.04 48.8807 32.6546 49.4006 32.2595H49.4101ZM6.70377 13.2016C7.98201 9.9498 9.2507 8.32631 10.5146 8.32631C11.025 8.32631 11.2825 8.62981 11.2825 9.23681C11.2539 10.9374 10.4908 13.0619 9.00269 15.6151C7.51459 18.1684 5.88341 20.4423 4.10915 22.4463C4.56225 19.5318 5.42554 16.4486 6.70377 13.1968V13.2016ZM14.9789 24.1132C15.8803 22.9763 16.8199 22.403 17.7977 22.403C18.7754 22.403 19.2619 22.8269 19.2619 23.6796C19.2619 25.1056 17.3827 26.4737 13.6244 27.7793C13.6244 26.4737 14.0775 25.2501 14.9789 24.1132ZM27.9711 24.1132C28.8725 22.9763 29.8121 22.403 30.7899 22.403C31.7676 22.403 32.2541 22.8269 32.2541 23.6796C32.2541 25.1056 30.3749 26.4737 26.6166 27.7793C26.6166 26.4737 27.0697 25.2501 27.9711 24.1132ZM40.9585 24.1132C41.86 22.9763 42.7996 22.403 43.7773 22.403C44.7551 22.403 45.2416 22.8269 45.2416 23.6796C45.2416 25.1056 43.3624 26.4737 39.604 27.7793C39.604 26.4737 40.0571 25.2501 40.9585 24.1132Z" fill="#738335"/>
<path d="M53.6836 45.9701C53.4118 45.9701 53.1399 45.893 52.8967 45.7389C48.5516 42.9303 48.1605 37.5973 49.0238 32.6161C48.9666 31.0889 49.4244 29.0945 50.4117 26.5509C51.5135 23.6989 52.8824 21.2083 52.9444 21.1023C53.3355 20.3989 54.2083 20.1388 54.9142 20.5194C55.6201 20.9 55.8872 21.7864 55.5199 22.4994C54.4038 24.6769 52.725 28.7428 51.9761 32.7847C52.0095 33.0207 52.0668 33.1653 52.124 33.2231C52.1288 33.2279 59.8506 32.1199 60.1463 25.8379C60.6615 14.9456 40.1716 10.3834 30.1079 12.1177C22.5243 13.4232 17.2587 16.6172 17.2063 16.6509C16.5147 17.0749 15.618 16.8533 15.1983 16.1596C14.7786 15.461 14.9932 14.5553 15.6848 14.1314C15.9137 13.9917 21.3987 10.6436 29.5069 9.22722C37.0237 7.91205 48.275 8.09029 59.1972 16.4101C61.3149 18.0239 64.4962 22.2344 64.024 26.6713C63.6472 30.1977 61.1861 33.04 56.7027 35.1308C55.8013 35.5499 53.5024 36.6194 51.5994 36.1714C51.523 39.163 52.2528 41.8126 54.4754 43.2482C55.1574 43.6866 55.353 44.6019 54.9189 45.2908C54.6375 45.7292 54.1654 45.9701 53.6836 45.9701Z" fill="#738335"/>
</g>
<defs>
<clipPath id="clip0_2_5">
<rect width="63.7495" height="46.5473" fill="white" transform="translate(0.322144 0.713806)"/>
</clipPath>
</defs>
</svg>
